<?xml version="1.0" encoding="UTF-8" standalone="no"?>
<!-- Created with Inkscape (http://www.inkscape.org/) -->

<svg
   xmlns:dc="http://purl.org/dc/elements/1.1/"
   xmlns:cc="http://creativecommons.org/ns#"
   xmlns:rdf="http://www.w3.org/1999/02/22-rdf-syntax-ns#"
   xmlns:svg="http://www.w3.org/2000/svg"
   xmlns="http://www.w3.org/2000/svg"
   xmlns:sodipodi="http://sodipodi.sourceforge.net/DTD/sodipodi-0.dtd"
   xmlns:inkscape="http://www.inkscape.org/namespaces/inkscape"
   width="115.68725mm"
   height="199.57339mm"
   viewBox="0 0 409.91544 707.14983"
   id="svg2"
   version="1.1"
   inkscape:version="0.92.3 (2405546, 2018-03-11)"
   sodipodi:docname="kite-banner.svg">
  <defs
     id="defs4" />
  <sodipodi:namedview
     id="base"
     pagecolor="#cdcdcd"
     bordercolor="#666666"
     borderopacity="1.0"
     inkscape:pageopacity="0"
     inkscape:pageshadow="2"
     inkscape:zoom="1.2219186"
     inkscape:cx="117.74914"
     inkscape:cy="232.73633"
     inkscape:document-units="px"
     inkscape:current-layer="layer1"
     showgrid="false"
     inkscape:window-width="1600"
     inkscape:window-height="827"
     inkscape:window-x="0"
     inkscape:window-y="0"
     inkscape:window-maximized="1"
     fit-margin-top="0"
     fit-margin-left="0"
     fit-margin-right="0"
     fit-margin-bottom="0"
     showguides="false" />
  <metadata
     id="metadata7">
    <rdf:RDF>
      <cc:Work
         rdf:about="">
        <dc:format>image/svg+xml</dc:format>
        <dc:type
           rdf:resource="http://purl.org/dc/dcmitype/StillImage" />
        <dc:title></dc:title>
      </cc:Work>
    </rdf:RDF>
  </metadata>
  <g
     inkscape:label="Layer 1"
     inkscape:groupmode="layer"
     id="layer1"
     transform="translate(-231.7097,-168.59438)">
    <g
       id="g4187"
       transform="translate(63.096238)">
      <path
         inkscape:connector-curvature="0"
         id="path3360"
         d="M 373.57112,373.55205 576.52891,256.37431 563.60628,702.7026 Z"
         style="fill:#55ddff;fill-opacity:1;fill-rule:evenodd;stroke:#ffffff;stroke-width:4;stroke-linecap:butt;stroke-linejoin:round;stroke-miterlimit:4;stroke-dasharray:none;stroke-opacity:1" />
      <path
         inkscape:connector-curvature="0"
         id="path3352"
         d="M 256.39339,170.59426 576.52891,256.37431 373.57112,373.55205 Z"
         style="fill:#00aad4;fill-opacity:1;fill-rule:evenodd;stroke:#ffffff;stroke-width:4;stroke-linecap:butt;stroke-linejoin:round;stroke-miterlimit:4;stroke-dasharray:none;stroke-opacity:1" />
      <path
         inkscape:connector-curvature="0"
         id="path3357"
         d="M 373.57112,373.55205 563.60628,702.7026 170.61334,490.72978 Z"
         style="fill:#00aad4;fill-opacity:1;fill-rule:evenodd;stroke:#ffffff;stroke-width:4;stroke-linecap:butt;stroke-linejoin:round;stroke-miterlimit:4;stroke-dasharray:none;stroke-opacity:1" />
      <path
         inkscape:connector-curvature="0"
         id="rect3339"
         d="M 256.39339,170.59426 373.57112,373.55205 170.61334,490.72978 Z"
         style="fill:#006680;fill-opacity:1;fill-rule:evenodd;stroke:#ffffff;stroke-width:4;stroke-linecap:butt;stroke-linejoin:round;stroke-miterlimit:4;stroke-dasharray:none;stroke-opacity:1" />
    </g>
    <g
       aria-label="kite"
       style="font-style:normal;font-weight:normal;font-size:37.5px;line-height:1.25;font-family:sans-serif;letter-spacing:0px;word-spacing:0px;fill:#1a1a1a;fill-opacity:1;stroke:none;stroke-width:0.93749994"
       id="text14"
       transform="translate(-35.433071)">
      <path
         d="m 355.21915,786.6817 q 3.5625,-4.125 6.1875,-6.5625 2.8125,-2.625 4.875,-3.9375 2.0625,-1.3125 3.75,-1.6875 1.875,-0.375 3.5625,-0.375 5.625,0 9.5625,3.9375 3.9375,3.75 3.9375,9.1875 0,2.4375 -1.3125,5.4375 -1.125,2.8125 -6,7.6875 l -10.6875,10.6875 21.375,36.375 q 3.5625,6 4.5,8.8125 1.125,2.8125 1.125,5.25 0,3.375 -1.5,6 -1.3125,2.625 -3.5625,4.5 -2.25,1.6875 -5.0625,2.625 -2.625,1.125 -5.0625,1.125 -6.5625,0 -10.125,-4.125 -3.5625,-4.3125 -6.5625,-10.125 l -15.75,-29.25 -13.3125,13.125 v 3.9375 q 0,8.625 -0.5625,13.5 -0.375,4.875 -3.375,7.875 -1.875,1.875 -4.6875,3.375 -2.8125,1.6875 -6.9375,1.6875 -6.9375,0 -11.8125,-4.875 -3.1875,-3.1875 -3.75,-8.0625 -0.5625,-5.0625 -0.5625,-13.5 v -92.8125 q 0,-0.5625 0,-2.25 0.1875,-1.875 0.5625,-3.9375 0.375,-2.25 1.125,-4.5 0.9375,-2.25 2.625,-3.75 1.875,-1.875 4.6875,-3.375 3,-1.6875 6.9375,-1.6875 3.1875,0 6.1875,1.3125 3.1875,1.3125 5.625,3.5625 3.1875,3.1875 3.5625,8.25 0.375,4.875 0.375,13.5 v 45.9375 z"
         style="font-style:normal;font-variant:normal;font-weight:800;font-stretch:normal;font-size:187.5px;font-family:'Arial Rounded MT Std';-inkscape-font-specification:'Arial Rounded MT Std Ultra-Bold';fill:#1a1a1a;stroke-width:0.93749994"
         id="path22"
         inkscape:connector-curvature="0" />
      <path
         d="m 447.13809,751.6192 q 0,6 -4.3125,10.3125 -4.3125,4.3125 -10.3125,4.3125 -6,0 -10.3125,-4.3125 -4.3125,-4.3125 -4.3125,-10.3125 0,-6 4.3125,-10.3125 4.3125,-4.3125 10.3125,-4.3125 6,0 10.3125,4.3125 4.3125,4.3125 4.3125,10.3125 z m 1.3125,97.875 q 0,8.625 -0.5625,13.5 -0.5625,4.6875 -3.75,7.875 -1.6875,1.6875 -4.6875,3.1875 -2.8125,1.6875 -6.9375,1.6875 -3.1875,0 -6.1875,-1.3125 -3,-1.125 -5.4375,-3.5625 -3.1875,-3 -3.75,-7.875 -0.375,-5.0625 -0.375,-13.5 v -49.125 q 0,-4.125 0,-7.3125 0.1875,-3.375 0.5625,-5.8125 0.375,-2.625 1.125,-4.5 0.9375,-2.0625 2.4375,-3.5625 2.0625,-2.0625 4.875,-3.5625 3,-1.5 6.75,-1.5 1.3125,0 3.5625,0.5625 2.25,0.375 4.6875,1.6875 2.4375,1.3125 4.3125,3.9375 2.0625,2.625 2.8125,6.75 0.1875,1.5 0.375,2.8125 0.1875,1.125 0.1875,2.625 0,1.3125 0,3.1875 0,1.875 0,4.6875 z"
         style="font-style:normal;font-variant:normal;font-weight:800;font-stretch:normal;font-size:187.5px;font-family:'Arial Rounded MT Std';-inkscape-font-specification:'Arial Rounded MT Std Ultra-Bold';fill:#1a1a1a;stroke-width:0.93749994"
         id="path24"
         inkscape:connector-curvature="0" />
      <path
         d="m 508.77579,836.9317 q 0,6.9375 0.9375,11.0625 0.9375,3.9375 6.5625,3.9375 4.3125,0 7.6875,-0.9375 3.375,-0.9375 5.8125,-0.9375 4.125,0 6.9375,3 2.8125,3 2.8125,7.3125 0,5.25 -3.1875,8.0625 -3,2.625 -6.9375,4.125 -6,2.0625 -11.8125,2.625 -5.625,0.5625 -9.75,0.5625 -11.25,0 -17.625,-3 -6.1875,-3 -9.1875,-8.0625 -2.8125,-5.25 -3.375,-12 -0.5625,-6.9375 -0.5625,-14.4375 v -39.1875 q -3.5625,-0.1875 -6.5625,-0.5625 -3,-0.5625 -4.6875,-2.25 -1.3125,-1.3125 -2.625,-3.375 -1.125,-2.0625 -1.125,-5.0625 0,-3.5625 1.6875,-6.1875 1.875,-2.8125 4.125,-3.75 2.4375,-1.3125 4.875,-1.5 2.4375,-0.375 4.3125,-0.1875 v -13.875 q 0,-3.5625 0,-6.1875 0.1875,-2.625 0.375,-4.5 0.1875,-2.0625 0.5625,-3.5625 0.5625,-1.6875 1.3125,-3.1875 1.5,-3.1875 5.25,-5.4375 3.75,-2.4375 8.4375,-2.4375 4.875,0 8.4375,2.4375 3.75,2.25 5.25,5.4375 1.3125,2.625 1.6875,5.625 0.375,2.8125 0.375,8.4375 v 17.4375 q 3.75,0 6.1875,0 2.4375,0 4.125,0.1875 1.6875,0.1875 2.8125,0.5625 1.3125,0.1875 2.625,0.75 2.0625,0.9375 3.75,3.5625 1.875,2.625 1.875,6.1875 0,3.1875 -1.6875,6.1875 -1.5,2.8125 -3.9375,3.75 -1.3125,0.5625 -2.4375,0.9375 -0.9375,0.375 -2.625,0.5625 -1.5,0.1875 -4.125,0.1875 -2.4375,0 -6.5625,0 z"
         style="font-style:normal;font-variant:normal;font-weight:800;font-stretch:normal;font-size:187.5px;font-family:'Arial Rounded MT Std';-inkscape-font-specification:'Arial Rounded MT Std Ultra-Bold';fill:#1a1a1a;stroke-width:0.93749994"
         id="path26"
         inkscape:connector-curvature="0" />
      <path
         d="m 610.16934,816.6817 q 0.375,-9.5625 -5.0625,-15.375 -5.25,-6 -13.6875,-6 -6,0 -9.5625,2.8125 -3.375,2.625 -5.25,6.1875 -1.6875,3.5625 -2.4375,7.125 -0.5625,3.5625 -0.75,5.25 z m -36.75,16.875 q 0.1875,6.75 2.4375,10.875 2.4375,4.125 5.625,6.5625 3.375,2.4375 6.75,3.375 3.5625,0.75 5.8125,0.75 3.9375,0 7.3125,-0.9375 3.375,-1.125 6,-2.4375 2.8125,-1.5 4.875,-2.8125 2.0625,-1.5 3.375,-2.4375 3,-2.0625 6,-3.9375 3,-2.0625 6.75,-2.0625 5.25,0 8.625,3.5625 3.5625,3.5625 3.5625,7.6875 0,4.125 -3,8.4375 -2.8125,4.3125 -8.625,7.875 -5.625,3.375 -14.0625,5.4375 -8.4375,2.25 -19.5,2.25 -15.375,0 -25.875,-4.3125 -10.3125,-4.5 -16.6875,-11.625 -6.1875,-7.125 -9,-16.125 -2.625,-9.1875 -2.625,-18.5625 0,-7.875 2.25,-16.6875 2.4375,-9 8.25,-16.5 6,-7.6875 15.75,-12.75 9.9375,-5.0625 25.125,-5.0625 13.875,0 23.0625,4.6875 9.375,4.5 14.8125,11.0625 5.625,6.375 7.875,13.5 2.4375,6.9375 2.4375,12 0,1.5 -0.375,3.75 -0.375,2.25 -1.5,4.6875 -0.9375,2.4375 -3,4.6875 -2.0625,2.0625 -5.4375,3.375 -2.8125,1.125 -7.5,1.5 -4.6875,0.1875 -7.875,0.1875 z"
         style="font-style:normal;font-variant:normal;font-weight:800;font-stretch:normal;font-size:187.5px;font-family:'Arial Rounded MT Std';-inkscape-font-specification:'Arial Rounded MT Std Ultra-Bold';fill:#1a1a1a;stroke-width:0.93749994"
         id="path28"
         inkscape:connector-curvature="0" />
    </g>
  </g>
</svg>
